<?xml version="1.0" encoding="UTF-8" standalone="no"?>
<!DOCTYPE svg PUBLIC "-//W3C//DTD SVG 1.1//EN"
 "http://www.w3.org/Graphics/SVG/1.1/DTD/svg11.dtd">
<!-- Generated by graphviz version 12.2.1 (20241206.2353)
 -->
<!-- Pages: 1 -->
<svg width="2232pt" height="282pt"
 viewBox="0.00 0.00 2231.93 281.98" xmlns="http://www.w3.org/2000/svg" xmlns:xlink="http://www.w3.org/1999/xlink">
<g id="graph0" class="graph" transform="scale(1 1) rotate(0) translate(4 277.98)">
<polygon fill="white" stroke="none" points="-4,4 -4,-277.98 2227.93,-277.98 2227.93,4 -4,4"/>
<!-- prepare_data -->
<g id="node1" class="node">
<title>prepare_data</title>
<ellipse fill="none" stroke="black" cx="1150.37" cy="-162" rx="58.52" ry="18"/>
<text text-anchor="middle" x="1150.37" y="-156.95" font-family="Times New Roman,serif" font-size="14.00">prepare_data</text>
</g>
<!-- train_decision_tree -->
<g id="node2" class="node">
<title>train_decision_tree</title>
<ellipse fill="none" stroke="black" cx="325.37" cy="-90" rx="81.55" ry="18"/>
<text text-anchor="middle" x="325.37" y="-84.95" font-family="Times New Roman,serif" font-size="14.00">train_decision_tree</text>
</g>
<!-- prepare_data&#45;&gt;train_decision_tree -->
<g id="edge1" class="edge">
<title>prepare_data&#45;&gt;train_decision_tree</title>
<path fill="none" stroke="black" d="M1093.76,-157.13C978.19,-149.09 706.8,-129.53 479.37,-108 456.01,-105.79 430.69,-103.11 407.46,-100.54"/>
<polygon fill="black" stroke="black" points="408.07,-97.09 397.74,-99.46 407.29,-104.04 408.07,-97.09"/>
</g>
<!-- evaluate_decision_tree -->
<g id="node3" class="node">
<title>evaluate_decision_tree</title>
<ellipse fill="none" stroke="black" cx="95.37" cy="-18" rx="95.37" ry="18"/>
<text text-anchor="middle" x="95.37" y="-12.95" font-family="Times New Roman,serif" font-size="14.00">evaluate_decision_tree</text>
</g>
<!-- prepare_data&#45;&gt;evaluate_decision_tree -->
<g id="edge2" class="edge">
<title>prepare_data&#45;&gt;evaluate_decision_tree</title>
<path fill="none" stroke="black" d="M1091.48,-161.46C915.3,-162.24 394.6,-159.97 234.37,-108 191.94,-94.24 149.72,-64.31 123.14,-42.96"/>
<polygon fill="black" stroke="black" points="125.54,-40.4 115.59,-36.77 121.1,-45.82 125.54,-40.4"/>
</g>
<!-- final_evaluate_decision_tree -->
<g id="node4" class="node">
<title>final_evaluate_decision_tree</title>
<ellipse fill="none" stroke="black" cx="325.37" cy="-18" rx="116.86" ry="18"/>
<text text-anchor="middle" x="325.37" y="-12.95" font-family="Times New Roman,serif" font-size="14.00">final_evaluate_decision_tree</text>
</g>
<!-- prepare_data&#45;&gt;final_evaluate_decision_tree -->
<g id="edge3" class="edge">
<title>prepare_data&#45;&gt;final_evaluate_decision_tree</title>
<path fill="none" stroke="black" d="M1092.73,-158.08C998.48,-152.62 805.8,-138.51 645.37,-108 552.32,-90.31 446.95,-58.68 383.36,-38.28"/>
<polygon fill="black" stroke="black" points="384.79,-35.07 374.2,-35.33 382.64,-41.73 384.79,-35.07"/>
</g>
<!-- train_linear_regression -->
<g id="node5" class="node">
<title>train_linear_regression</title>
<ellipse fill="none" stroke="black" cx="829.37" cy="-90" rx="95.88" ry="18"/>
<text text-anchor="middle" x="829.37" y="-84.95" font-family="Times New Roman,serif" font-size="14.00">train_linear_regression</text>
</g>
<!-- prepare_data&#45;&gt;train_linear_regression -->
<g id="edge4" class="edge">
<title>prepare_data&#45;&gt;train_linear_regression</title>
<path fill="none" stroke="black" d="M1103.69,-150.82C1050.65,-139.26 963.45,-120.24 901.61,-106.75"/>
<polygon fill="black" stroke="black" points="902.37,-103.34 891.85,-104.63 900.88,-110.18 902.37,-103.34"/>
</g>
<!-- evaluate_linear_regression -->
<g id="node6" class="node">
<title>evaluate_linear_regression</title>
<ellipse fill="none" stroke="black" cx="570.37" cy="-18" rx="109.7" ry="18"/>
<text text-anchor="middle" x="570.37" y="-12.95" font-family="Times New Roman,serif" font-size="14.00">evaluate_linear_regression</text>
</g>
<!-- prepare_data&#45;&gt;evaluate_linear_regression -->
<g id="edge5" class="edge">
<title>prepare_data&#45;&gt;evaluate_linear_regression</title>
<path fill="none" stroke="black" d="M1091.55,-161.01C1007.84,-159.4 850.48,-150.34 724.37,-108 678.93,-92.75 631.99,-63.28 602.06,-42.43"/>
<polygon fill="black" stroke="black" points="604.38,-39.79 594.2,-36.87 600.34,-45.51 604.38,-39.79"/>
</g>
<!-- final_evaluate_linear_regression -->
<g id="node7" class="node">
<title>final_evaluate_linear_regression</title>
<ellipse fill="none" stroke="black" cx="829.37" cy="-18" rx="131.19" ry="18"/>
<text text-anchor="middle" x="829.37" y="-12.95" font-family="Times New Roman,serif" font-size="14.00">final_evaluate_linear_regression</text>
</g>
<!-- prepare_data&#45;&gt;final_evaluate_linear_regression -->
<g id="edge6" class="edge">
<title>prepare_data&#45;&gt;final_evaluate_linear_regression</title>
<path fill="none" stroke="black" d="M1117.82,-146.6C1060.93,-121.44 943.19,-69.35 877.08,-40.11"/>
<polygon fill="black" stroke="black" points="878.87,-37.07 868.31,-36.23 876.04,-43.47 878.87,-37.07"/>
</g>
<!-- train_xgboost -->
<g id="node8" class="node">
<title>train_xgboost</title>
<ellipse fill="none" stroke="black" cx="1150.37" cy="-90" rx="61.59" ry="18"/>
<text text-anchor="middle" x="1150.37" y="-84.95" font-family="Times New Roman,serif" font-size="14.00">train_xgboost</text>
</g>
<!-- prepare_data&#45;&gt;train_xgboost -->
<g id="edge7" class="edge">
<title>prepare_data&#45;&gt;train_xgboost</title>
<path fill="none" stroke="black" d="M1150.37,-143.7C1150.37,-136.41 1150.37,-127.73 1150.37,-119.54"/>
<polygon fill="black" stroke="black" points="1153.87,-119.62 1150.37,-109.62 1146.87,-119.62 1153.87,-119.62"/>
</g>
<!-- evaluate_xgboost -->
<g id="node9" class="node">
<title>evaluate_xgboost</title>
<ellipse fill="none" stroke="black" cx="1054.37" cy="-18" rx="75.41" ry="18"/>
<text text-anchor="middle" x="1054.37" y="-12.95" font-family="Times New Roman,serif" font-size="14.00">evaluate_xgboost</text>
</g>
<!-- prepare_data&#45;&gt;evaluate_xgboost -->
<g id="edge8" class="edge">
<title>prepare_data&#45;&gt;evaluate_xgboost</title>
<path fill="none" stroke="black" d="M1122.17,-146.02C1107.43,-136.86 1090.25,-123.85 1079.37,-108 1067.07,-90.09 1060.79,-66.24 1057.6,-47.74"/>
<polygon fill="black" stroke="black" points="1061.08,-47.34 1056.14,-37.96 1054.15,-48.37 1061.08,-47.34"/>
</g>
<!-- final_evaluate_xgboost -->
<g id="node10" class="node">
<title>final_evaluate_xgboost</title>
<ellipse fill="none" stroke="black" cx="1244.37" cy="-18" rx="96.9" ry="18"/>
<text text-anchor="middle" x="1244.37" y="-12.95" font-family="Times New Roman,serif" font-size="14.00">final_evaluate_xgboost</text>
</g>
<!-- prepare_data&#45;&gt;final_evaluate_xgboost -->
<g id="edge9" class="edge">
<title>prepare_data&#45;&gt;final_evaluate_xgboost</title>
<path fill="none" stroke="black" d="M1179.05,-145.89C1193.75,-136.77 1210.74,-123.84 1221.37,-108 1233.41,-90.07 1239.14,-66.22 1241.88,-47.72"/>
<polygon fill="black" stroke="black" points="1245.33,-48.31 1243.09,-37.96 1238.39,-47.45 1245.33,-48.31"/>
</g>
<!-- train_catboost -->
<g id="node11" class="node">
<title>train_catboost</title>
<ellipse fill="none" stroke="black" cx="1436.37" cy="-90" rx="63.12" ry="18"/>
<text text-anchor="middle" x="1436.37" y="-84.95" font-family="Times New Roman,serif" font-size="14.00">train_catboost</text>
</g>
<!-- prepare_data&#45;&gt;train_catboost -->
<g id="edge10" class="edge">
<title>prepare_data&#45;&gt;train_catboost</title>
<path fill="none" stroke="black" d="M1195.05,-150.06C1244.48,-137.96 1324.28,-118.43 1378.47,-105.17"/>
<polygon fill="black" stroke="black" points="1379.27,-108.58 1388.15,-102.8 1377.6,-101.78 1379.27,-108.58"/>
</g>
<!-- evaluate_catboost -->
<g id="node12" class="node">
<title>evaluate_catboost</title>
<ellipse fill="none" stroke="black" cx="1436.37" cy="-18" rx="76.94" ry="18"/>
<text text-anchor="middle" x="1436.37" y="-12.95" font-family="Times New Roman,serif" font-size="14.00">evaluate_catboost</text>
</g>
<!-- prepare_data&#45;&gt;evaluate_catboost -->
<g id="edge11" class="edge">
<title>prepare_data&#45;&gt;evaluate_catboost</title>
<path fill="none" stroke="black" d="M1180.16,-146.21C1231.32,-120.81 1335.96,-68.85 1394.45,-39.81"/>
<polygon fill="black" stroke="black" points="1395.71,-43.1 1403.11,-35.51 1392.59,-36.83 1395.71,-43.1"/>
</g>
<!-- final_evaluate_catboost -->
<g id="node13" class="node">
<title>final_evaluate_catboost</title>
<ellipse fill="none" stroke="black" cx="1629.37" cy="-18" rx="98.44" ry="18"/>
<text text-anchor="middle" x="1629.37" y="-12.95" font-family="Times New Roman,serif" font-size="14.00">final_evaluate_catboost</text>
</g>
<!-- prepare_data&#45;&gt;final_evaluate_catboost -->
<g id="edge12" class="edge">
<title>prepare_data&#45;&gt;final_evaluate_catboost</title>
<path fill="none" stroke="black" d="M1209.06,-160.9C1281.92,-158.87 1408.73,-149.02 1508.37,-108 1544.98,-92.92 1580.73,-64.42 1603.76,-43.72"/>
<polygon fill="black" stroke="black" points="1606.12,-46.31 1611.12,-36.97 1601.38,-41.15 1606.12,-46.31"/>
</g>
<!-- neural_network_train -->
<g id="node14" class="node">
<title>neural_network_train</title>
<ellipse fill="none" stroke="black" cx="1850.37" cy="-90" rx="90.25" ry="18"/>
<text text-anchor="middle" x="1850.37" y="-84.95" font-family="Times New Roman,serif" font-size="14.00">neural_network_train</text>
</g>
<!-- prepare_data&#45;&gt;neural_network_train -->
<g id="edge13" class="edge">
<title>prepare_data&#45;&gt;neural_network_train</title>
<path fill="none" stroke="black" d="M1205.75,-155.66C1303.3,-146.23 1512.13,-125.93 1688.37,-108 1711.82,-105.61 1737.18,-102.98 1760.71,-100.51"/>
<polygon fill="black" stroke="black" points="1761.01,-104 1770.59,-99.47 1760.28,-97.04 1761.01,-104"/>
</g>
<!-- neural_network_evaluate -->
<g id="node15" class="node">
<title>neural_network_evaluate</title>
<ellipse fill="none" stroke="black" cx="1850.37" cy="-18" rx="104.07" ry="18"/>
<text text-anchor="middle" x="1850.37" y="-12.95" font-family="Times New Roman,serif" font-size="14.00">neural_network_evaluate</text>
</g>
<!-- prepare_data&#45;&gt;neural_network_evaluate -->
<g id="edge14" class="edge">
<title>prepare_data&#45;&gt;neural_network_evaluate</title>
<path fill="none" stroke="black" d="M1206.45,-156.45C1284.58,-149.46 1430.35,-134.09 1552.37,-108 1638.61,-89.56 1736.11,-58.42 1795.4,-38.29"/>
<polygon fill="black" stroke="black" points="1796.25,-41.7 1804.58,-35.16 1793.98,-35.08 1796.25,-41.7"/>
</g>
<!-- final_neural_network_evaluate -->
<g id="node16" class="node">
<title>final_neural_network_evaluate</title>
<ellipse fill="none" stroke="black" cx="2098.37" cy="-18" rx="125.56" ry="18"/>
<text text-anchor="middle" x="2098.37" y="-12.95" font-family="Times New Roman,serif" font-size="14.00">final_neural_network_evaluate</text>
</g>
<!-- prepare_data&#45;&gt;final_neural_network_evaluate -->
<g id="edge15" class="edge">
<title>prepare_data&#45;&gt;final_neural_network_evaluate</title>
<path fill="none" stroke="black" d="M1208.97,-160.65C1369.08,-159.15 1811.18,-151.1 1949.37,-108 1994.08,-94.06 2039.42,-64.24 2068.15,-42.96"/>
<polygon fill="black" stroke="black" points="2070.15,-45.83 2076.02,-37.02 2065.93,-40.25 2070.15,-45.83"/>
</g>
<!-- train_decision_tree&#45;&gt;evaluate_decision_tree -->
<g id="edge16" class="edge">
<title>train_decision_tree&#45;&gt;evaluate_decision_tree</title>
<path fill="none" stroke="black" d="M278.82,-74.83C243.07,-63.95 193.43,-48.85 154.81,-37.09"/>
<polygon fill="black" stroke="black" points="156.26,-33.87 145.67,-34.31 154.22,-40.57 156.26,-33.87"/>
</g>
<!-- train_decision_tree&#45;&gt;final_evaluate_decision_tree -->
<g id="edge17" class="edge">
<title>train_decision_tree&#45;&gt;final_evaluate_decision_tree</title>
<path fill="none" stroke="black" d="M325.37,-71.7C325.37,-64.41 325.37,-55.73 325.37,-47.54"/>
<polygon fill="black" stroke="black" points="328.87,-47.62 325.37,-37.62 321.87,-47.62 328.87,-47.62"/>
</g>
<!-- train_linear_regression&#45;&gt;evaluate_linear_regression -->
<g id="edge18" class="edge">
<title>train_linear_regression&#45;&gt;evaluate_linear_regression</title>
<path fill="none" stroke="black" d="M776.33,-74.67C735.89,-63.74 679.96,-48.62 636.59,-36.9"/>
<polygon fill="black" stroke="black" points="637.6,-33.54 627.03,-34.31 635.77,-40.3 637.6,-33.54"/>
</g>
<!-- train_linear_regression&#45;&gt;final_evaluate_linear_regression -->
<g id="edge19" class="edge">
<title>train_linear_regression&#45;&gt;final_evaluate_linear_regression</title>
<path fill="none" stroke="black" d="M829.37,-71.7C829.37,-64.41 829.37,-55.73 829.37,-47.54"/>
<polygon fill="black" stroke="black" points="832.87,-47.62 829.37,-37.62 825.87,-47.62 832.87,-47.62"/>
</g>
<!-- train_xgboost&#45;&gt;evaluate_xgboost -->
<g id="edge20" class="edge">
<title>train_xgboost&#45;&gt;evaluate_xgboost</title>
<path fill="none" stroke="black" d="M1128.1,-72.76C1115.68,-63.71 1099.99,-52.27 1086.29,-42.28"/>
<polygon fill="black" stroke="black" points="1088.54,-39.59 1078.4,-36.53 1084.42,-45.24 1088.54,-39.59"/>
</g>
<!-- train_xgboost&#45;&gt;final_evaluate_xgboost -->
<g id="edge21" class="edge">
<title>train_xgboost&#45;&gt;final_evaluate_xgboost</title>
<path fill="none" stroke="black" d="M1172.17,-72.76C1184.24,-63.77 1199.47,-52.44 1212.82,-42.49"/>
<polygon fill="black" stroke="black" points="1214.56,-45.56 1220.49,-36.78 1210.38,-39.95 1214.56,-45.56"/>
</g>
<!-- train_catboost&#45;&gt;evaluate_catboost -->
<g id="edge22" class="edge">
<title>train_catboost&#45;&gt;evaluate_catboost</title>
<path fill="none" stroke="black" d="M1436.37,-71.7C1436.37,-64.41 1436.37,-55.73 1436.37,-47.54"/>
<polygon fill="black" stroke="black" points="1439.87,-47.62 1436.37,-37.62 1432.87,-47.62 1439.87,-47.62"/>
</g>
<!-- train_catboost&#45;&gt;final_evaluate_catboost -->
<g id="edge23" class="edge">
<title>train_catboost&#45;&gt;final_evaluate_catboost</title>
<path fill="none" stroke="black" d="M1474.04,-75.34C1503.01,-64.83 1543.43,-50.17 1575.78,-38.44"/>
<polygon fill="black" stroke="black" points="1576.78,-41.8 1584.99,-35.1 1574.39,-35.22 1576.78,-41.8"/>
</g>
<!-- neural_network_train&#45;&gt;neural_network_evaluate -->
<g id="edge24" class="edge">
<title>neural_network_train&#45;&gt;neural_network_evaluate</title>
<path fill="none" stroke="black" d="M1850.37,-71.7C1850.37,-64.41 1850.37,-55.73 1850.37,-47.54"/>
<polygon fill="black" stroke="black" points="1853.87,-47.62 1850.37,-37.62 1846.87,-47.62 1853.87,-47.62"/>
</g>
<!-- neural_network_train&#45;&gt;final_neural_network_evaluate -->
<g id="edge25" class="edge">
<title>neural_network_train&#45;&gt;final_neural_network_evaluate</title>
<path fill="none" stroke="black" d="M1900.85,-74.75C1938.73,-64.06 1990.94,-49.32 2032.17,-37.69"/>
<polygon fill="black" stroke="black" points="2033.08,-41.06 2041.75,-34.98 2031.18,-34.33 2033.08,-41.06"/>
</g>
<!-- data\raw\test_scores.csv.dvc -->
<g id="node17" class="node">
<title>data\raw\test_scores.csv.dvc</title>
<ellipse fill="none" stroke="black" cx="1150.37" cy="-244.99" rx="95.64" ry="28.99"/>
<text text-anchor="end" x="1209.99" y="-248.19" font-family="Times New Roman,serif" font-size="14.00">data</text>
<text text-anchor="middle" x="1150.37" y="-231.69" font-family="Times New Roman,serif" font-size="14.00">awtest_scores.csv.dvc</text>
</g>
<!-- data\raw\test_scores.csv.dvc&#45;&gt;prepare_data -->
<g id="edge26" class="edge">
<title>data\raw\test_scores.csv.dvc&#45;&gt;prepare_data</title>
<path fill="none" stroke="black" d="M1150.37,-215.66C1150.37,-207.79 1150.37,-199.24 1150.37,-191.36"/>
<polygon fill="black" stroke="black" points="1153.87,-191.61 1150.37,-181.61 1146.87,-191.61 1153.87,-191.61"/>
</g>
</g>
</svg>
